<?xml version="1.0" encoding="UTF-8"?>
<svg xmlns="http://www.w3.org/2000/svg" viewBox="0 0 518.78 335.67">
  <g id="zone">
    <path d="m129.89,315.18c8.93,0,15.91-6.97,15.91-15.88s-4.98-16.16-13.91-16.16c0,0-7.79,1.16-12.78,1.16-5.58,0-12.43-1.16-12.43-1.16l38-67.44c.28-1.39.56-2.51.56-3.34,0-4.74-3.63-8.64-7.26-8.64h-65.03c-9.21,0-16.19,7.25-16.19,16.44s4.98,16.16,14.19,16.16c0,0,7.97-.94,12.44-1,4.47-.06,12.77,1,12.77,1l-38.84,66.88c-.28,1.39-.56,2.51-.56,3.34,0,4.74,3.63,8.64,7.26,8.64h65.87Z"/>
    <path d="m358.6,252.48c0-26.47-6.42-50.16-38.52-50.16-7.54,0-20.37,2.23-27.07,14.77l-1.12-3.9c-1.95-5.57-6.98-9.48-12.84-9.48-7.54,0-13.4,6.13-13.4,13.66v79.7c0,9.75,6.81,17.84,16.58,17.84s16.86-8.08,16.86-17.84v-42.08c0-11.98,4.51-19.51,13.16-19.51,9.21,0,15.88,7.52,15.88,19.51l1,42.08c0,9.75,4.81,17.84,14.58,17.84s14.86-8.08,14.86-17.84v-44.59Z"/>
    <path d="m415.03,235.48c6.42,0,8.37,2.79,9.77,13.93,0,0-4.4-1.03-9.69-1.12-5.33-.1-10.69,1.12-10.69,1.12,1.95-11.15,3.91-13.93,10.61-13.93Zm32.93,71.62c3.07-2.51,4.47-6.13,4.47-10.31,0-7.8-6.42-14.21-14.23-14.21-2.51,0-4.47.28-5.86,1.11-3.63,1.95-7.26,2.79-13.95,2.79s-18.31-2.09-20.27-15.19c0,0,10.2-1.1,21.13-1.07,13.56.05,24.53.92,24.53.92,8.65,0,15.91-7.8,15.91-16.44,0-33.72-15.07-52.39-45.21-52.39-37.96,0-45.49,27.03-45.49,57.97,0,39.29,18.14,56.29,49.68,56.29,9.21,0,20.37-1.67,29.31-9.48Z"/>
    <path d="m201.32,200.64c-31.54,0-53.72,26.76-53.72,57.98s22.18,56.28,53.72,56.28,53.28-25.35,53.28-56.28-22.02-57.98-53.28-57.98Zm31.02,73.2c-3.67,5.08-20.25-1.92-22-1-1.75.92-7.75,16.58-14,17-6.25.42-4-18.67-5-21-1-2.33-21.25-2.92-22-8-.75-5.08,17.46-12.07,17.46-12.07,0,0-.08-21.18,1.54-21.93l2-1c3.83-1.83,14.75,13.88,16.41,14.13,1.67.25,17.67-9.38,21.59-5.13,3.92,4.25-10.21,19.26-9.04,21.59,1.17,2.33,16.71,12.33,13.04,17.41Z"/>
  </g>
  <g id="witch">
    <g>
      <path d="m290.99,152.1c-3.35-2.6-6.98-3.9-10.88-3.9s-5.91-1.99-6.56-5.99c-.65-3.99-.98-9.24-.98-15.75v-29.82h4.74c4.65,0,8.51-1.58,11.58-4.74,3.07-3.16,4.61-7.06,4.61-11.7s-1.54-8.5-4.61-11.57c-3.07-3.07-6.93-4.6-11.58-4.6h-4.74v-27.59c0-4.83-1.72-9.01-5.16-12.54-3.45-3.53-7.58-5.29-12.42-5.29s-8.98,1.77-12.42,5.29c-3.45,3.53-5.16,7.71-5.16,12.54v27.59h-3.91c-4.65,0-8.51,1.58-11.58,4.74-3.07,3.16-4.61,7.06-4.61,11.7s1.54,8.5,4.61,11.57c3.07,3.07,6.93,4.6,11.58,4.6h3.91v33.72c0,9.48.88,17.28,2.65,23.41,1.77,6.13,4.28,11.01,7.54,14.63,3.25,3.62,7.3,6.18,12.14,7.66,4.84,1.48,10.33,2.23,16.47,2.23,5.58,0,10.28-1.25,14.09-3.76,3.81-2.51,5.72-6.36,5.72-11.57,0-4.64-1.67-8.26-5.02-10.87Z"/>
      <path d="m382.39,163.94c1.21-2.13,1.81-4.5,1.81-7.11,0-3.9-1.44-7.29-4.33-10.17-2.89-2.88-6.38-4.32-10.47-4.32-2.42,0-4.28.37-5.58,1.11-1.67.93-3.49,1.95-5.44,3.07s-4.14,1.67-6.56,1.67c-3.72,0-6.79-.74-9.21-2.23-2.42-1.48-4.33-3.48-5.72-5.99-1.4-2.51-2.37-5.39-2.93-8.64-.56-3.25-.84-6.73-.84-10.45,0-7.43,1.12-13.24,3.35-17.42s6.51-6.27,12.84-6.27c3.35,0,5.95.24,7.81.7,1.86.47,3.25.98,4.19,1.53.93.37,1.95.74,3.07,1.11,1.12.37,2.23.56,3.35.56,4.47,0,8.32-1.58,11.58-4.74,3.25-3.16,4.88-6.97,4.88-11.43,0-2.79-.7-5.43-2.09-7.94-1.4-2.51-3.21-4.5-5.44-5.99-3.91-2.79-7.95-4.64-12.14-5.57-4.19-.93-9.17-1.39-14.93-1.39-8,0-15.21,1.49-21.63,4.46-6.42,2.97-11.86,7.01-16.33,12.12-4.47,5.11-7.91,11.1-10.33,17.97-2.42,6.88-3.63,14.21-3.63,22.02s1.21,15.19,3.63,22.15c2.42,6.97,5.86,13.1,10.33,18.39,4.47,5.29,9.91,9.48,16.33,12.54,6.42,3.07,13.63,4.6,21.63,4.6,5.95,0,10.98-.65,15.07-1.95,4.09-1.3,8.37-3.62,12.84-6.97,2.05-1.48,3.67-3.3,4.88-5.43Z"/>
      <path d="m393.97,158.79c0,4.83,1.72,9.01,5.16,12.54,3.44,3.53,7.58,5.29,12.42,5.29s9.02-1.76,12.56-5.29c3.53-3.53,5.3-7.71,5.3-12.54v-42.08c0-5.94.79-10.68,2.37-14.21,1.58-3.53,4.51-5.29,8.79-5.29,4.65,0,7.63,1.77,8.93,5.29,1.3,3.53,1.95,8.27,1.95,14.21v42.08c0,4.83,1.72,9.01,5.16,12.54,3.44,3.53,7.58,5.29,12.42,5.29s9.02-1.76,12.56-5.29c3.53-3.53,5.3-7.71,5.3-12.54v-44.59c0-6.69-.51-13.05-1.53-19.09-1.02-6.04-2.93-11.33-5.72-15.88-2.79-4.55-6.7-8.22-11.72-11.01s-11.54-4.18-19.54-4.18c-2.61,0-5.63.37-9.07,1.11-3.45.74-6.75,2.33-9.91,4.74v-33.44c0-4.83-1.72-9.01-5.16-12.54-3.45-3.53-7.58-5.29-12.42-5.29s-9.03,1.77-12.56,5.29c-3.54,3.53-5.3,7.71-5.3,12.54v122.34Z"/>
      <path d="m94.87,123.3c.18.19.56.74,1.12,1.67l22.05,48.21c2.23,2.23,4.37,3.34,6.42,3.34,1.3,0,2.42-.28,3.35-.84.93-.56,1.86-1.3,2.79-2.23l33.77-86.39c.56-1.67.84-3.44.84-5.29,0-4.83-1.67-8.92-5.02-12.26-3.35-3.34-7.35-5.02-12-5.02-3.72,0-7.16,1.11-10.33,3.34-3.17,2.23-5.4,5.02-6.7,8.36l-12.28,32.88-7.54-18.39c-2.42-5.94-5.16-9.94-8.23-11.98-3.07-2.04-6.19-3.07-9.35-3.07s-6.28,1.02-9.35,3.07c-3.07,2.05-5.82,6.04-8.23,11.98l-7.54,18.39-12.28-32.88c-1.3-3.34-3.54-6.13-6.7-8.36-3.17-2.23-6.61-3.34-10.33-3.34-4.65,0-8.65,1.67-12,5.02-3.35,3.34-5.02,7.43-5.02,12.26,0,1.86.28,3.62.84,5.29l33.77,86.39c2.05,2.05,4.09,3.07,6.14,3.07s4.19-1.11,6.42-3.34l22.05-48.21c.56-.93.93-1.48,1.12-1.67.18-.18.56-.28,1.12-.28s.93.1,1.12.28Z"/>
      <path d="m202.85,70l-6.17,6.34c-4.54,4.54-6.86,4.42-11.27,0l-6.06-6.26c-.23.21-.46.41-.68.64-3.45,3.53-5.16,7.71-5.16,12.54v75.52c0,4.83,1.72,9.01,5.16,12.54,3.44,3.53,7.58,5.29,12.42,5.29s9.02-1.76,12.56-5.29c3.53-3.53,5.3-7.71,5.3-12.54v-75.52c0-4.83-1.77-9.01-5.3-12.54-.26-.26-.52-.48-.79-.72Z"/>
      <path d="m214.58,24.51c-5.7-6.64-15.84-8.45-23.05-1.06-.25.25-.69.25-.94,0-7.95-7.45-17.91-5.64-23.05,1-8.83,11.52-3.88,19.91,6.33,30.18l11.52,11.9c4.42,4.42,6.73,4.54,11.27,0l11.59-11.9c10.27-10.27,15.78-19.16,6.33-30.12Zm.19,15.58c-.21.94-1.61,1.03-1.96.13-.93-2.36-2.74-5.6-6.25-8.31-3.86-2.98-8-3.96-10.81-4.26-1.02-.11-1.25-1.4-.34-1.85,5.92-2.93,12.61-.74,16.3,4.05,2.93,3.78,3.76,7.11,3.07,10.25Z"/>
    </g>
  </g>
</svg>